<svg xmlns="http://www.w3.org/2000/svg" xmlns:xlink="http://www.w3.org/1999/xlink" version="1.1" x="0px" y="0px" viewBox="0 0 1000 1250" enable-background="new 0 0 1000 1000" xml:space="preserve"><g><g><path fill="#000000" d="M796.304,454.311c-8.504-9.833-16.513-20.525-26.552-28.88c-9.247-7.696-19.709-11.485-31.555-12.947    c-12.84-1.584-25.742,0.077-38.524,1.269c-5.238,0.489-10.708,0.899-15.847-0.394c-4.812-1.21-6.642-4.7-7.594-9.738    c-0.739-3.908-5.566-6.404-9.227-5.238c-36.43,11.597-71.044,27.829-108.762,35.375c-17.23,3.447-36.236,5.508-53.108-0.605    c-7.21-2.613-14.478-8.171-16.878-15.913c-2.446-7.888,2.301-16.521,5.87-23.283c6.648-12.592,15.13-25.494,14.372-40.343    c-0.197-3.871-3.267-7.778-7.5-7.5c-23.7,1.559-45.543,12.173-66.272,22.999c-10.755,5.617-21.353,11.528-32.197,16.971    c-11.68,5.863-23.812,10.875-35.744,16.197c-51.754,23.085-104.345,45.461-159.78,58.101c-7.009,1.598-6.515,10.116-1.791,13.708    c3.893,2.96,9.1,3.008,13.785,3.024c9.675,0.033,9.671-14.967,0-15c-2.179-0.007-4.429,0.382-6.215-0.976    c-0.597,4.569-1.194,9.139-1.791,13.708c54.242-12.367,105.786-34.082,156.487-56.555c22.86-10.132,45.318-20.487,67.372-32.282    c20.439-10.931,42.523-23.342,66.146-24.896c-2.5-2.5-5-5-7.5-7.5c0.472,9.24-4.019,17.499-8.303,25.389    c-4.646,8.556-9.855,17.227-11.791,26.888c-4.257,21.243,12.518,37.217,31.403,42.941c18.423,5.584,38.902,2.994,57.423-0.611    c20.897-4.066,41.233-10.829,61.23-18.029c15.856-5.709,31.467-12.233,47.531-17.347c-3.076-1.746-6.15-3.492-9.227-5.238    c5.814,30.74,43.099,19.478,64.795,19.294c11.605-0.099,22.365,1.699,31.831,8.542c10.62,7.678,18.798,19.639,27.303,29.474    C792.035,472.247,802.598,461.589,796.304,454.311L796.304,454.311z"/></g></g><g><g><path fill="#000000" d="M796.304,631.082c-8.504-9.833-16.513-20.524-26.552-28.88c-9.247-7.696-19.709-11.485-31.555-12.947    c-12.84-1.584-25.742,0.077-38.524,1.27c-5.238,0.488-10.708,0.898-15.847-0.395c-4.812-1.21-6.642-4.699-7.594-9.738    c-0.739-3.907-5.566-6.403-9.227-5.238c-36.43,11.597-71.044,27.829-108.762,35.376c-17.23,3.447-36.236,5.509-53.108-0.605    c-7.21-2.612-14.478-8.171-16.878-15.913c-2.446-7.888,2.301-16.521,5.87-23.282c6.648-12.592,15.13-25.494,14.372-40.343    c-0.197-3.871-3.267-7.778-7.5-7.5c-23.7,1.559-45.543,12.173-66.272,22.999c-10.755,5.617-21.353,11.527-32.197,16.972    c-11.68,5.862-23.812,10.874-35.744,16.196c-51.754,23.085-104.345,45.462-159.78,58.101c-7.009,1.599-6.515,10.116-1.791,13.708    c3.893,2.961,9.1,3.009,13.785,3.024c9.675,0.033,9.671-14.967,0-15c-2.179-0.008-4.429,0.382-6.215-0.976    c-0.597,4.569-1.194,9.139-1.791,13.708c54.242-12.367,105.786-34.083,156.487-56.555c22.86-10.133,45.318-20.487,67.372-32.282    c20.439-10.931,42.523-23.342,66.146-24.896c-2.5-2.5-5-5-7.5-7.5c0.472,9.24-4.019,17.499-8.303,25.389    c-4.646,8.557-9.855,17.228-11.791,26.889c-4.257,21.243,12.518,37.217,31.403,42.941c18.423,5.584,38.902,2.993,57.423-0.611    c20.897-4.066,41.233-10.829,61.23-18.029c15.856-5.708,31.467-12.232,47.531-17.346c-3.076-1.746-6.15-3.492-9.227-5.238    c5.814,30.74,43.099,19.478,64.795,19.294c11.605-0.099,22.365,1.698,31.831,8.541c10.62,7.679,18.798,19.639,27.303,29.475    C792.035,649.018,802.598,638.36,796.304,631.082L796.304,631.082z"/></g></g><text x="0" y="1015" fill="#000000" font-size="5px" font-weight="bold" font-family="'Helvetica Neue', Helvetica, Arial-Unicode, Arial, Sans-serif">Created by kai b</text><text x="0" y="1020" fill="#000000" font-size="5px" font-weight="bold" font-family="'Helvetica Neue', Helvetica, Arial-Unicode, Arial, Sans-serif">from the Noun Project</text></svg>