<svg xmlns="http://www.w3.org/2000/svg" xmlns:xlink="http://www.w3.org/1999/xlink" version="1.1" x="0px" y="0px" viewBox="0 0 1000 1250" enable-background="new 0 0 1000 1000" xml:space="preserve"><g><g><path fill="#000000" d="M348.785,419.476c28.932-13.159,83.713-1.785,86.582,36.077c2.653,35.02-41.438,52.568-69.524,58.329    c-16.723,3.43-32.575,2.858-48.5-0.29c-19.984-3.95-42.688-12.663-55.044-29.785c-28.412-39.372,22.237-80.496,51.621-99.623    c82.928-53.978,184.623-72.385,281.148-50.454c63.692,14.471,122.85,46.107,170.628,90.573c7.07,6.58,17.701-4.004,10.607-10.606    c-73.579-68.476-172.196-106.496-272.779-104.084c-50.209,1.204-99.709,12.817-145.49,33.34    c-21.339,9.565-42.028,21.216-61.151,34.691c-18.513,13.045-36.312,28.589-47.885,48.318    c-11.354,19.358-13.125,42.56-1.671,62.308c11.316,19.509,33.761,30.698,54.575,36.944c35.495,10.651,73.892,6.433,106.96-10.471    c14.49-7.407,28.31-18.342,35.889-33.026c8.074-15.644,7.409-34.67-1.593-49.765c-19.415-32.556-69.479-40.194-101.943-25.429    c-3.723,1.693-4.597,7.008-2.691,10.261C340.745,420.577,345.064,421.168,348.785,419.476L348.785,419.476z"/></g></g><g><g><path fill="#000000" d="M669.01,605.31c-28.932,13.158-83.713,1.785-86.582-36.078c-2.653-35.02,41.438-52.567,69.524-58.328    c16.723-3.43,32.575-2.858,48.5,0.29c19.984,3.951,42.688,12.663,55.044,29.784c28.412,39.372-22.237,80.497-51.621,99.623    c-82.928,53.978-184.623,72.386-281.148,50.454c-63.692-14.471-122.85-46.107-170.628-90.573    c-7.07-6.579-17.701,4.005-10.607,10.607c73.579,68.476,172.196,106.495,272.779,104.083    c50.209-1.203,99.709-12.817,145.49-33.339c21.339-9.565,42.028-21.216,61.151-34.691c18.513-13.046,36.312-28.59,47.885-48.318    c11.354-19.358,13.125-42.56,1.671-62.308c-11.316-19.51-33.761-30.698-54.575-36.944c-35.495-10.651-73.892-6.433-106.96,10.471    c-14.49,7.407-28.31,18.342-35.889,33.026c-8.074,15.643-7.409,34.669,1.593,49.765c19.415,32.555,69.479,40.193,101.943,25.428    c3.723-1.692,4.597-7.008,2.691-10.261C677.05,604.208,672.73,603.616,669.01,605.31L669.01,605.31z"/></g></g><text x="0" y="1015" fill="#000000" font-size="5px" font-weight="bold" font-family="'Helvetica Neue', Helvetica, Arial-Unicode, Arial, Sans-serif">Created by kai b</text><text x="0" y="1020" fill="#000000" font-size="5px" font-weight="bold" font-family="'Helvetica Neue', Helvetica, Arial-Unicode, Arial, Sans-serif">from the Noun Project</text></svg>