<svg xmlns="http://www.w3.org/2000/svg" xmlns:xlink="http://www.w3.org/1999/xlink" version="1.1" x="0px" y="0px" viewBox="0 0 1000 1250" enable-background="new 0 0 1000 1000" xml:space="preserve"><g><g><path fill="#000000" d="M321.285,848.785c33.228-46.183,60.118-96.784,77.943-150.885    c16.391-49.747,24.328-102.243,23.783-154.599c-1.132-108.994-40.161-214.095-97.258-305.822    c-17.682-28.407-37.271-55.586-58.071-81.783c-2.547-3.207-7.965-2.643-10.607,0c-3.136,3.136-2.539,7.408,0,10.606    c69.526,87.56,124.324,189.161,143.825,300.128c8.897,50.63,9.628,102.914,1.693,153.718    c-8.328,53.33-26.271,104.771-51.438,152.444c-12.6,23.866-27.066,46.722-42.822,68.621c-2.393,3.325-0.586,8.342,2.69,10.261    C314.804,853.69,318.903,852.097,321.285,848.785L321.285,848.785z"/></g></g><g><g><path fill="#000000" d="M667.837,157.215c-33.228,46.183-60.118,96.784-77.943,150.885    c-16.391,49.747-24.328,102.243-23.783,154.599c1.132,108.994,40.161,214.095,97.258,305.822    c17.682,28.407,37.271,55.586,58.071,81.783c2.547,3.206,7.965,2.642,10.607,0c3.136-3.137,2.539-7.408,0-10.607    c-69.526-87.56-124.324-189.16-143.825-300.128c-8.897-50.63-9.628-102.914-1.693-153.718    c8.328-53.33,26.271-104.771,51.438-152.444c12.6-23.866,27.066-46.721,42.822-68.621c2.393-3.325,0.586-8.342-2.69-10.261    C674.318,152.31,670.219,153.903,667.837,157.215L667.837,157.215z"/></g></g><g><g><path fill="#000000" d="M207.146,502.5c130.688,0.01,261.45,1.852,392.049-4.133c58.781-2.694,117.498-7.055,175.951-13.867    c4.06-0.473,7.5-3.054,7.5-7.5c0-3.729-3.43-7.974-7.5-7.5c-130.092,15.16-261.197,17.966-392.049,18.259    c-58.65,0.131-117.301-0.255-175.951-0.259C197.474,487.5,197.474,502.499,207.146,502.5L207.146,502.5z"/></g></g><text x="0" y="1015" fill="#000000" font-size="5px" font-weight="bold" font-family="'Helvetica Neue', Helvetica, Arial-Unicode, Arial, Sans-serif">Created by kai b</text><text x="0" y="1020" fill="#000000" font-size="5px" font-weight="bold" font-family="'Helvetica Neue', Helvetica, Arial-Unicode, Arial, Sans-serif">from the Noun Project</text></svg>