<svg xmlns="http://www.w3.org/2000/svg" xmlns:xlink="http://www.w3.org/1999/xlink" version="1.1" x="0px" y="0px" viewBox="0 0 1000 1250" enable-background="new 0 0 1000 1000" xml:space="preserve"><g><g><path fill="#000000" d="M519.766,252.194c-7.333,0-14.667,0-22,0c-9.702,0-9.635,14.65,0,15    c108.127,3.924,214.677-31.003,313.994-70.268c-2.433-4.178-4.865-8.357-7.298-12.535    c-62.77,73.527-57.408,177.791-31.929,265.297c2.699,9.268,17.175,5.321,14.465-3.987    c-23.817-81.797-30.956-181.561,28.071-250.703c4.351-5.096,0.349-15.558-7.298-12.535    c-98.092,38.78-203.198,73.608-310.006,69.732c0,5,0,10,0,15c7.333,0,14.667,0,22,0    C529.438,267.194,529.438,252.194,519.766,252.194L519.766,252.194z"/></g></g><g><g><path fill="#000000" d="M792.207,190.385c-34.487,44.96-77.81,82.59-120.189,119.842c-21.511,18.908-43.097,37.742-63.941,57.387    c-21.54,20.299-42.424,41.331-63.061,62.542c-84.621,86.975-163.385,179.42-247.736,266.65    c-36.149,37.384-73.375,73.753-112.349,108.195c-7.262,6.418,3.388,16.986,10.607,10.607    c90.897-80.332,171.794-170.956,253.35-260.513c40.804-44.807,81.863-89.403,124.525-132.456    c20.435-20.622,41.175-40.958,62.649-60.499c21.373-19.448,43.278-38.303,64.891-57.483    c37.212-33.024,73.84-67.116,104.207-106.704c2.494-3.252,0.504-8.389-2.691-10.261    C798.607,185.432,794.69,187.147,792.207,190.385L792.207,190.385z"/></g></g><g><g><path fill="#000000" d="M230.177,499.617c98.797,78.769,194.966,161.217,283.078,251.912c0.438,0.452,0.878,0.905,1.316,1.358    c6.744,6.954,17.341-3.663,10.607-10.607c-88.031-90.78-184.157-173.292-282.929-252.1c-0.488-0.39-0.978-0.779-1.466-1.169    c-3.194-2.546-7.476-3.132-10.607,0C227.53,491.657,226.976,497.064,230.177,499.617L230.177,499.617z"/></g></g><text x="0" y="1015" fill="#000000" font-size="5px" font-weight="bold" font-family="'Helvetica Neue', Helvetica, Arial-Unicode, Arial, Sans-serif">Created by kai b</text><text x="0" y="1020" fill="#000000" font-size="5px" font-weight="bold" font-family="'Helvetica Neue', Helvetica, Arial-Unicode, Arial, Sans-serif">from the Noun Project</text></svg>