<svg xmlns="http://www.w3.org/2000/svg" xmlns:xlink="http://www.w3.org/1999/xlink" version="1.1" x="0px" y="0px" viewBox="0 0 1000 1250" enable-background="new 0 0 1000 1000" xml:space="preserve"><g><g><g><path fill="#000000" d="M685.566,707.584c-21.123-0.025-42.398-1.272-62.825-7.018c-10.004-2.813-19.479-6.993-27.922-13.095     c-3.708-2.68-6.944-6.121-9.813-9.661c-2.006-2.474-2.329-2.826-2.956-5.618c-0.346-1.538-0.606-3.095-0.842-4.653     c-0.286-1.893,0.169,1.487-0.145-1.119c-0.136-1.131-0.25-2.264-0.358-3.396c-0.453-4.752-0.693-9.524-0.869-14.294     c-0.458-12.428-0.361-24.877-0.174-37.31c1.02-67.404,5.354-134.748,4.169-202.184c-0.502-28.592-1.552-57.717-7.344-85.806     c-3.095-15.007-8.998-38.027-26.483-42.144c-24.809-5.841-37.803,29.896-44.164,47.229     c-11.861,32.313-18.672,66.564-24.979,100.318c-4.623,24.743-8.768,49.513-13.763,74.183     c-11.799,58.262-18.467,117.422-30.243,175.688c4.911,0.665,9.822,1.329,14.732,1.994c-0.795-32.905-0.027-65.813,0.996-98.704     c0.512-16.454,1.08-32.907,1.536-49.363c0.428-15.413,0.067-30.934,0.845-46.325c1.338-26.489,3.724-52.872,4.329-79.408     c0.407-17.836,0.273-35.71-1.001-53.511c-1.107-15.46-2.901-31.276-7.664-46.089c-3.341-10.395-8.956-22.421-19.487-27.227     c-7.337-3.349-15.278-2.813-21.889,1.954c-15.986,11.526-23.422,34.055-29.583,51.809c-9.986,28.775-16.729,58.703-22.771,88.516     c-13.122,64.748-22.271,130.54-28.267,196.323c-1.675,18.374-3.945,37.313-2.956,55.797c0.519,9.689,14.385,9.639,15,0     c4.037-63.214,1.808-126.644-2.049-189.808c-3.497-57.287-5.927-115.638-19.835-171.556     c-6.449-25.929-15.936-51.266-29.35-74.417c-4.847-8.364-17.812-0.815-12.953,7.57c28.287,48.817,36.902,105.924,41.729,161.313     c5.31,60.936,8.921,122.288,9.529,183.456c0.277,27.826-0.297,55.668-2.071,83.441c5,0,10,0,15,0     c-0.962-17.975,1.218-36.371,2.815-54.243c2.711-30.317,6.32-60.563,10.524-90.707c4.818-34.543,10.446-68.991,17.347-103.182     c6.021-29.829,12.847-59.711,22.771-88.516c3.884-11.271,6.854-19.077,12.56-29.353c1.025-1.847,2.121-3.653,3.275-5.422     c0.533-0.815,1.09-1.614,1.657-2.406c1.479-2.064-0.507,0.532,1.055-1.362c1.047-1.269,2.179-2.466,3.382-3.589     c0.465-0.434,2.612-2.143,0.476-0.5c0.641-0.492,1.316-0.936,2.009-1.353c0.558-0.335,1.141-0.626,1.732-0.896     c-2.52,1.152-0.445,0.221,0.244,0.023c0.724-0.208,2.996-0.456,0.056-0.119c0.685-0.079,1.376-0.072,2.063-0.031     c0.15,0.009-1.94-0.413,0.082,0.064c0.598,0.141,3.323,1.275,1.299,0.351c0.916,0.418,1.773,0.956,2.604,1.522     c1.471,1.001-1.265-1.061,0.117,0.104c0.547,0.461,1.054,0.968,1.555,1.479c0.39,0.396,0.753,0.817,1.116,1.237     c1.258,1.455-0.923-1.287,0.247,0.297c0.725,0.979,1.369,2.017,1.992,3.063c0.666,1.119,1.258,2.281,1.829,3.451     c1.023,2.093,0.586,1.137,1.441,3.373c2.433,6.354,3.979,13.04,5.232,19.713c6.212,33.052,4.874,68.533,3.349,102.272     c-0.64,14.162-1.581,28.307-2.591,42.447c-1.298,18.152-1.18,36.315-1.639,54.507c-1.293,51.33-3.931,102.646-2.689,154.006     c0.198,8.212,13.006,10.538,14.732,1.994c12.825-63.463,19.768-127.962,33.506-191.257c5.352-24.659,8.65-49.781,13.564-74.538     c6.412-32.302,13.533-66.962,26.765-96.487c2.53-5.646,5.417-11.164,8.952-16.25c1.827-2.629,5.304-6.214,7.912-7.666     c2.187-1.217-0.622,0.088,1.115-0.475c0.414-0.134,0.84-0.23,1.266-0.326c1.563-0.351-1.881,0.172-0.289,0.029     c0.761-0.069,1.527-0.032,2.287,0.036c-2.863-0.256-0.227,0.012,0.559,0.237c1.945,0.557,0.236,0.029,0.327,0.072     c0.602,0.284,1.173,0.629,1.731,0.988c1.929,1.242-0.968-0.882,0.407,0.298c0.649,0.557,1.247,1.173,1.824,1.803     c0.26,0.283,0.506,0.578,0.752,0.872c0.954,1.141-1.103-1.479-0.198-0.264c0.498,0.669,0.957,1.368,1.403,2.072     c1.063,1.677,1.969,3.453,2.806,5.251c1.063,2.283-0.104-0.378,0.627,1.451c0.396,0.991,0.76,1.995,1.115,3.001     c0.834,2.36,1.546,4.763,2.206,7.176c3.233,11.827,4.673,22.745,5.849,34c3.309,31.652,3.431,63.648,3.152,95.438     c-0.563,64.185-5.469,128.416-4.335,192.604c0.148,8.404,0.443,16.835,1.385,25.192c0.398,3.542,0.873,7.096,1.655,10.576     c1.513,6.731,6.811,12.511,11.591,17.255c13.261,13.157,31.873,19.935,49.782,23.79c18.516,3.986,37.638,4.989,56.529,5.012     C695.24,722.596,695.239,707.596,685.566,707.584L685.566,707.584z"/></g></g><g><g><path fill="#000000" d="M663.248,680.002c16.867,12.722,32.597,26.922,48.481,40.828c0-3.536,0-7.071,0-10.607     c-15.041,14.828-33.069,25.791-45.173,43.519c-5.471,8.013,7.534,15.506,12.953,7.57c11.235-16.455,28.837-26.69,42.827-40.481     c2.767-2.728,3.062-7.927,0-10.607c-16.86-14.759-33.616-29.671-51.519-43.172c-3.272-2.469-8.377-0.526-10.262,2.69     C658.309,673.58,659.99,677.546,663.248,680.002L663.248,680.002z"/></g></g></g><text x="0" y="1015" fill="#000000" font-size="5px" font-weight="bold" font-family="'Helvetica Neue', Helvetica, Arial-Unicode, Arial, Sans-serif">Created by kai b</text><text x="0" y="1020" fill="#000000" font-size="5px" font-weight="bold" font-family="'Helvetica Neue', Helvetica, Arial-Unicode, Arial, Sans-serif">from the Noun Project</text></svg>