<svg xmlns="http://www.w3.org/2000/svg" xmlns:xlink="http://www.w3.org/1999/xlink" version="1.1" x="0px" y="0px" viewBox="0 0 1000 1250" enable-background="new 0 0 1000 1000" xml:space="preserve"><g><g><path fill="#000000" d="M669.622,705.94c-22.864-3.68-43.522-14.971-53.792-36.478c-1.596-3.34-2.17-7.058-2.685-10.694    c0.37,2.617-0.06-0.591-0.129-1.202c-0.11-0.986-0.206-1.974-0.297-2.962c-0.218-2.361-0.377-4.728-0.515-7.095    c-1.535-26.381-0.42-52.967,0.371-79.354c2.033-67.78,6.14-135.94,1.902-203.711c-1.5-23.988-3.338-49.64-13.051-71.94    c-2.975-6.829-7.664-13.875-14.512-17.3c-9.093-4.548-18.511-1.914-25.963,4.446c-9.402,8.024-14.811,20.626-19.468,31.743    c-6.326,15.098-10.871,30.946-14.966,46.771c-8.214,31.748-14.031,64.073-19.555,96.378c-4.422,25.869-10.16,51.466-14.636,77.33    c-8.008,46.274-14.105,92.873-23.412,138.921c4.911,0.665,9.821,1.329,14.732,1.994c-0.795-32.906-0.027-65.813,0.996-98.704    c0.512-16.454,1.08-32.907,1.536-49.363c0.428-15.413,0.067-30.933,0.845-46.325c1.338-26.489,3.724-52.872,4.329-79.408    c0.407-17.836,0.273-35.71-1.001-53.511c-1.106-15.46-2.901-31.276-7.664-46.089c-3.341-10.394-8.956-22.42-19.487-27.227    c-7.337-3.349-15.278-2.813-21.889,1.954c-15.986,11.526-23.422,34.055-29.583,51.809c-9.986,28.775-16.729,58.703-22.771,88.516    c-13.122,64.748-22.271,130.54-28.267,196.323c-1.675,18.374-3.945,37.313-2.956,55.797c0.519,9.689,14.385,9.639,15,0    c4.037-63.214,1.807-126.644-2.049-189.808c-3.497-57.287-5.927-115.638-19.835-171.556    c-6.448-25.928-15.935-51.265-29.351-74.417c-4.846-8.364-17.811-0.814-12.951,7.571c28.286,48.816,36.901,105.923,41.728,161.312    c5.31,60.936,8.921,122.288,9.53,183.455c0.276,27.827-0.299,55.669-2.072,83.442c5,0,10,0,15,0    c-0.962-17.975,1.218-36.371,2.815-54.243c2.711-30.317,6.32-60.563,10.524-90.707c4.818-34.542,10.446-68.991,17.347-103.182    c6.021-29.83,12.847-59.712,22.771-88.516c3.883-11.271,6.854-19.077,12.56-29.353c1.025-1.847,2.121-3.653,3.276-5.422    c0.532-0.815,1.089-1.614,1.656-2.406c1.479-2.064-0.507,0.532,1.055-1.362c1.047-1.27,2.18-2.467,3.382-3.589    c0.465-0.434,2.612-2.143,0.476-0.5c0.641-0.493,1.316-0.936,2.009-1.353c0.558-0.335,1.142-0.626,1.733-0.897    c-2.521,1.153-0.446,0.222,0.243,0.023c0.724-0.208,2.996-0.456,0.056-0.119c0.685-0.079,1.376-0.072,2.063-0.031    c0.15,0.009-1.939-0.413,0.083,0.064c0.599,0.141,3.323,1.275,1.299,0.351c0.916,0.418,1.773,0.956,2.604,1.522    c1.471,1.001-1.264-1.061,0.117,0.104c0.547,0.461,1.054,0.968,1.555,1.478c0.39,0.396,0.753,0.817,1.116,1.237    c1.258,1.455-0.923-1.287,0.247,0.296c0.725,0.98,1.369,2.017,1.992,3.063c0.666,1.119,1.258,2.281,1.829,3.45    c1.024,2.093,0.586,1.137,1.442,3.373c2.432,6.354,3.978,13.04,5.231,19.713c6.212,33.052,4.874,68.533,3.349,102.272    c-0.64,14.162-1.581,28.307-2.592,42.447c-1.297,18.152-1.179,36.315-1.637,54.507c-1.294,51.33-3.932,102.646-2.69,154.006    c0.198,8.212,13.005,10.538,14.732,1.994c12.825-63.463,19.768-127.962,33.506-191.257c5.353-24.658,8.649-49.781,13.564-74.538    c6.412-32.302,13.533-66.962,26.765-96.487c2.53-5.646,5.417-11.164,8.952-16.25c1.827-2.629,5.304-6.213,7.912-7.666    c2.187-1.217-0.622,0.088,1.115-0.475c0.415-0.134,0.84-0.23,1.265-0.326c1.564-0.351-1.88,0.172-0.288,0.029    c0.761-0.069,1.528-0.032,2.287,0.036c-2.863-0.256-0.227,0.012,0.559,0.237c1.945,0.557,0.237,0.029,0.327,0.072    c0.602,0.284,1.173,0.629,1.731,0.988c1.929,1.242-0.968-0.882,0.407,0.298c0.649,0.557,1.247,1.173,1.824,1.803    c0.26,0.283,0.506,0.578,0.752,0.872c0.954,1.141-1.103-1.479-0.198-0.264c0.499,0.669,0.956,1.368,1.403,2.072    c1.064,1.677,1.969,3.453,2.807,5.251c1.062,2.283-0.105-0.378,0.626,1.451c0.396,0.991,0.76,1.995,1.115,3.001    c0.834,2.36,1.546,4.763,2.206,7.176c3.233,11.827,4.673,22.745,5.85,34c3.308,31.652,3.43,63.648,3.151,95.438    c-0.563,64.185-5.469,128.416-4.335,192.604c0.211,11.962,0.396,24.4,3.119,36.11c2.93,12.597,12.395,24.406,22.146,32.492    c12.43,10.306,27.835,16.404,43.683,18.955c4.033,0.648,8.055-0.979,9.227-5.238C675.854,711.555,673.663,706.592,669.622,705.94    L669.622,705.94z"/></g></g><g><g><path fill="#000000" d="M617.07,435.067c4.329-9.542,9.8-19.687,19.07-25.239c5.863-3.512,11.602-3.067,17.164,0.019    c17.051,9.46,21.536,33.802,23.189,51.295c4.172,44.142-4.865,89.033-22.766,129.398    c-35.784,80.692-108.585,149.179-197.332,164.613c-13.777,2.396-27.839,3.121-41.802,2.629c-9.678-0.341-9.645,14.66,0,15    c92.283,3.251,175.262-52.804,225.616-127.043c25.385-37.425,42.964-80.757,49.447-125.569    c3.213-22.202,3.731-44.662,0.973-66.941c-2.571-20.757-10.087-43.086-28.165-55.354c-9.534-6.47-20.947-6.737-31.293-2.33    c-13.005,5.541-21.498,19.705-27.054,31.952c-1.689,3.723-1.104,8.039,2.69,10.261C610.06,439.663,615.382,438.792,617.07,435.067    L617.07,435.067z"/></g></g><text x="0" y="1015" fill="#000000" font-size="5px" font-weight="bold" font-family="'Helvetica Neue', Helvetica, Arial-Unicode, Arial, Sans-serif">Created by kai b</text><text x="0" y="1020" fill="#000000" font-size="5px" font-weight="bold" font-family="'Helvetica Neue', Helvetica, Arial-Unicode, Arial, Sans-serif">from the Noun Project</text></svg>