<svg xmlns="http://www.w3.org/2000/svg" xmlns:xlink="http://www.w3.org/1999/xlink" version="1.1" x="0px" y="0px" viewBox="0 0 1000 1250" enable-background="new 0 0 1000 1000" xml:space="preserve"><g><g><path fill="#000000" d="M815.864,390.937c24.958,10.023,48.381-6.763,60.788-27.748c12.741-21.551,16.483-47.474,12.938-72.014    c-6.536-45.23-36.413-87.654-78.412-106.371c-17.863-7.96-37.148-11.284-56.574-8.552c-17.898,2.518-34.672,10.213-49.471,20.409    c-34.107,23.5-59.178,58.906-79.791,94.231c-22.036,37.764-38.865,78.164-54.624,118.859    c-21.772,56.223-39.475,114.023-52.51,172.894C501.162,659.63,492.521,738.465,492.5,817.31c5,0,10,0,15,0    c-0.034-121.854-21.237-242.788-60.276-358.122c-15.578-46.022-33.233-91.93-54.904-135.47    c-18.808-37.789-41.364-74.995-71.309-105.062c-26.02-26.126-60.521-46.744-98.645-42.98    c-44.343,4.377-80.937,36.415-99.662,75.57c-13.452,28.128-17.995,60.767-8.607,90.854c9.024,28.921,36.042,62.491,70.039,48.838    c3.79-1.522,6.415-4.945,5.238-9.226c-0.992-3.605-5.427-6.765-9.227-5.238c-24.416,9.806-42.422-13.848-50.143-34.181    c-8.508-22.409-7.209-46.849,0.062-69.375c13.086-40.545,47.063-75.103,89.982-81.954c36.117-5.766,68.879,16.249,92.875,40.855    c29.354,30.101,50.903,67.583,69.234,105.13c21.699,44.446,39.185,91.307,54.608,138.241    c18.816,57.258,33.199,115.965,42.714,175.482c8.805,55.075,13.004,110.871,13.02,166.637c0.003,9.673,14.997,9.673,15,0    c0.034-121.828,21.542-242.376,60.909-357.561c15.458-45.227,32.853-90.332,54.51-132.999    c18.826-37.087,41.273-73.75,71.787-102.427c25.778-24.227,59.311-40.534,95.072-31.307c42.99,11.093,73.942,50.142,83.57,92.303    c4.696,20.565,3.263,42.753-5.459,62.073c-8.45,18.718-25.707,38.048-48.037,29.081c-3.8-1.526-8.234,1.633-9.227,5.238    C809.449,385.992,812.074,389.415,815.864,390.937L815.864,390.937z"/></g></g><text x="0" y="1015" fill="#000000" font-size="5px" font-weight="bold" font-family="'Helvetica Neue', Helvetica, Arial-Unicode, Arial, Sans-serif">Created by kai b</text><text x="0" y="1020" fill="#000000" font-size="5px" font-weight="bold" font-family="'Helvetica Neue', Helvetica, Arial-Unicode, Arial, Sans-serif">from the Noun Project</text></svg>