<svg xmlns="http://www.w3.org/2000/svg" xmlns:xlink="http://www.w3.org/1999/xlink" version="1.1" x="0px" y="0px" viewBox="0 0 1000 1250" enable-background="new 0 0 1000 1000" xml:space="preserve"><g><g><path fill="#000000" d="M285.525,284.978c30.441,22.388,37.396,65.953,41.429,100.877c4.86,42.095,4.253,85.066,13.124,126.64    c1.718,8.05,11.93,6.18,14.465,0c10.552-25.727,9.441-54.518,11.086-81.78c1.421-23.542,5.944-45.282,17.313-65.585    c9.293-16.599,21.287-33.109,36.562-44.703c12.567-9.54,29.951-15.888,43.234-3.967c13.165,11.815,16.054,32.33,17.396,48.97    c1.688,20.942,0.338,42.013-0.546,62.959c-0.844,19.978-0.011,39.097,5.565,58.472c6.318,21.955,17.696,42.631,33.594,59.094    c15.978,16.546,37.233,27.693,60.043,30.824c21.739,2.982,44.037,0.393,64.736-6.803c39.489-13.727,76.28-48.076,74.601-92.832    c-1.495-39.854-39.677-60.344-75.14-63.915c-18.827-1.896-38.391,0.946-55.81,8.319c-12.825,5.429-23.813,14.292-32.78,24.881    c-18.505,21.852-28.673,49.607-36.497,76.776c-8.491,29.486-14.121,59.696-21.497,89.462c-6.49,26.19-13.453,51.937-28.643,73.939    c-5.646,8.18-13.479,15.808-22.689,20.787c-4.459,2.41-8.711,3.931-14.815,5.266c-5.248,1.148-11.108,1.506-17.729,1.259    c-11.122-0.414-22.163-3.087-33.222-6.649c-9.234-2.974-13.156,11.512-3.988,14.465c26.464,8.524,56.682,11.707,81.312-3.711    c21.697-13.581,33.787-37.679,42.305-60.947c20.274-55.381,23.403-117.555,48.047-170.591    c11.534-24.824,27.503-45.702,54.095-54.172c16.972-5.406,35.585-6.03,52.967-2.314c15.427,3.298,31.437,10.578,40.896,23.71    c10.673,14.817,9.709,33.412,3.6,49.883c-6.973,18.798-22.716,33.299-39.718,43.093c-36.365,20.95-86.745,24.063-120.65-3.262    c-17.218-13.876-29.287-33.351-36.497-54.078c-6.579-18.914-7.969-37.734-7.222-57.552c0.787-20.85,2.151-41.699,0.945-62.563    c-1.102-19.075-4.069-40.13-15.609-55.984c-11.432-15.705-30.672-22.099-49.138-15.887c-18.963,6.378-33.884,22.11-45.72,37.6    c-11.517,15.07-21.281,31.859-27.071,49.987c-8.714,27.278-7.086,56.649-9.351,84.85c-1.063,13.241-3.366,26.373-8.428,38.711    c4.822,0,9.643,0,14.465,0c-9.054-42.427-7.977-86.415-13.396-129.343c-4.94-39.125-14.445-82.422-48.051-107.138    c-3.301-2.428-8.358-0.558-10.262,2.69C280.604,278.523,282.239,282.561,285.525,284.978L285.525,284.978z"/></g></g><text x="0" y="1015" fill="#000000" font-size="5px" font-weight="bold" font-family="'Helvetica Neue', Helvetica, Arial-Unicode, Arial, Sans-serif">Created by kai b</text><text x="0" y="1020" fill="#000000" font-size="5px" font-weight="bold" font-family="'Helvetica Neue', Helvetica, Arial-Unicode, Arial, Sans-serif">from the Noun Project</text></svg>