<svg xmlns="http://www.w3.org/2000/svg" xmlns:xlink="http://www.w3.org/1999/xlink" version="1.1" x="0px" y="0px" viewBox="0 0 1000 1250" enable-background="new 0 0 1000 1000" xml:space="preserve"><g><g><path fill="#000000" d="M396.332,505.142c-5.313-16.573-18.206-27.917-36.035-27.899c-16.793,0.017-32.989,9.608-44.333,21.391    c-12.424,12.903-20.249,30.987-18.008,49.062c1.975,15.928,10.016,30.581,21.068,42.036    c21.558,22.342,54.487,32.437,84.917,32.413c29.267-0.023,60.636-10.663,76.834-36.464c8.787-13.995,11.308-31.353,8.985-47.503    c-3.044-21.164-16.463-39.335-30.375-54.812c-14.508-16.139-31.065-30.354-44.764-47.234    c-14.603-17.995-22.518-40.316-20.429-63.558c2.18-24.257,16.533-46.275,32.64-63.721c16.273-17.628,36.027-32.022,56.864-43.793    c34.987-19.764,78.537-30.851,118.697-25.181c19.47,2.749,38.473,9.906,53.506,22.814c15.954,13.699,25.336,32.471,29.464,52.88    c8.772,43.368-8.248,89.513-26.221,128.293c-18.322,39.535-41.405,76.692-63.066,114.437    c-23.051,40.166-52.546,77.963-64.419,123.511c-4.721,18.112-5.467,37.704,0.956,55.517c5.779,16.027,18.067,26.988,33.646,33.188    c14.828,5.9,31.774,6.507,47.512,5.567c15.956-0.952,31.828-3.865,47.322-7.716c9.383-2.332,5.401-16.798-3.988-14.465    c-16.764,4.167-33.828,7.145-51.132,7.495c-15.773,0.32-34.056-1.449-46.866-11.665c-14.51-11.57-17.41-31.674-15.771-49.122    c2.143-22.799,12.858-44.793,23.546-64.67c11.075-20.598,23.975-40.122,36.177-60.052c10.261-16.758,19.771-34.017,29.666-50.995    c23.509-40.337,46.545-81.79,60.11-126.697c12.628-41.805,15.236-88.729-9.26-126.848    c-23.492-36.557-69.229-49.479-110.409-47.546c-43.006,2.019-83.915,18.016-119.144,42.226    c-40.201,27.626-80.031,71.848-74.733,124.18c2.425,23.951,14.062,44.452,29.588,62.308    c14.291,16.435,30.915,30.668,45.005,47.294c12.528,14.783,22.485,32.388,21.713,52.283c-0.522,13.48-5.814,25.835-15.097,35.151    c-19.083,19.151-51.208,22.769-77.351,18.173c-14.828-2.606-28.449-7.68-40.964-15.896c-10.96-7.195-20.76-17.942-25.604-29.781    c-4.377-10.696-5.231-21.379-1.469-32.373c3.602-10.521,11.623-19.791,20.624-26.112c8.458-5.939,18.076-9.606,27.902-8.897    c3.057,0.221,7.746,1.995,10.289,4.092c3.996,3.295,6.327,7.644,7.94,12.678C384.809,518.303,399.293,514.38,396.332,505.142    L396.332,505.142z"/></g></g><text x="0" y="1015" fill="#000000" font-size="5px" font-weight="bold" font-family="'Helvetica Neue', Helvetica, Arial-Unicode, Arial, Sans-serif">Created by kai b</text><text x="0" y="1020" fill="#000000" font-size="5px" font-weight="bold" font-family="'Helvetica Neue', Helvetica, Arial-Unicode, Arial, Sans-serif">from the Noun Project</text></svg>