<svg xmlns="http://www.w3.org/2000/svg" xmlns:xlink="http://www.w3.org/1999/xlink" version="1.1" x="0px" y="0px" viewBox="0 0 1000 1250" enable-background="new 0 0 1000 1000" xml:space="preserve"><g><g><path fill="#000000" d="M191.056,674.945c115.396-1.501,230.403-13.212,345.693-17.551c90.016-3.388,180.944-3.226,270.201,10.288    c4.039,0.611,8.047-0.952,9.227-5.238c0.985-3.585-1.19-8.613-5.238-9.227c-117.479-17.785-237.053-13.657-355.256-6.89    c-88.162,5.047-176.29,12.468-264.627,13.617C181.391,660.071,181.378,675.071,191.056,674.945L191.056,674.945z"/></g></g><g><g><path fill="#000000" d="M760.274,515.382c-69.165,2.448-138.066,11.532-207.373,9.328c1.262,4.659,2.523,9.317,3.785,13.976    c18.997-8.104,35.763-21.597,50.149-36.221c16.445-16.717,30.021-36.384,38.646-58.23c7.948-20.131,10.268-43.567,2.357-64.072    c-6.517-16.89-18.205-30.751-33.721-40.069c-31.552-18.948-72.436-17.242-107.257-10.588    c-37.265,7.122-74.378,22.108-101.997,48.743c-22.507,21.705-35.679,51.638-29.631,82.994c3.302,17.12,12.821,32.442,23.945,45.56    c6.25,7.371,14.49,13.925,22.555,19.212c7.438,4.877,16.441,7.821,25.364,6.699c4.056-0.51,7.5-3.025,7.5-7.5    c0-3.979-3.412-7.645-7.5-7.5c-69.166,2.447-138.066,11.532-207.373,9.326c-9.678-0.308-9.648,14.693,0,15    c69.307,2.206,138.207-6.879,207.373-9.326c0-5,0-10,0-15c-13.658,1.718-24.293-9.08-33.588-17.583    c-9.526-8.714-16.996-21.292-21.245-33.411c-7.507-21.413-2.723-43.334,9.605-61.856c21.564-32.398,60.563-49.324,97.039-58.286    c32.818-8.063,72.136-11.671,103.317,4.085c14.459,7.307,25.698,19.363,31.549,34.526c7.644,19.813,3.394,41.978-5.188,60.741    c-8.409,18.389-20.941,34.679-35.263,48.839c-12.794,12.649-27.585,23.873-44.21,30.965c-7.313,3.119-3.013,13.76,3.785,13.976    c69.307,2.204,138.208-6.88,207.373-9.328C769.919,530.04,769.952,515.039,760.274,515.382L760.274,515.382z"/></g></g><text x="0" y="1015" fill="#000000" font-size="5px" font-weight="bold" font-family="'Helvetica Neue', Helvetica, Arial-Unicode, Arial, Sans-serif">Created by kai b</text><text x="0" y="1020" fill="#000000" font-size="5px" font-weight="bold" font-family="'Helvetica Neue', Helvetica, Arial-Unicode, Arial, Sans-serif">from the Noun Project</text></svg>