<svg xmlns="http://www.w3.org/2000/svg" xmlns:xlink="http://www.w3.org/1999/xlink" version="1.1" x="0px" y="0px" viewBox="0 0 1000 1250" enable-background="new 0 0 1000 1000" xml:space="preserve"><g><g><path fill="#000000" d="M133.994,265.371c19.041-3.464,38.603-3.571,57.499,0.805c17.124,3.965,32.944,11.611,47.559,21.262    c30.501,20.143,54.759,48.607,79.253,75.341c24.717,26.977,50.483,54.277,82.694,72.378c21.523,12.096,45.726,19.067,70.39,20.136    c26.091,1.131,51.783-5.55,75.369-16.312c84.869-38.722,128.58-137.392,220.842-163.547c32.129-9.108,66.082-6.979,98.406-0.063    c9.434,2.019,13.445-12.44,3.988-14.464c-45.827-9.806-92.339-9.158-135.307,10.982c-39.469,18.5-71.387,50.398-101.855,80.78    c-18.314,18.261-36.164,36.851-57.246,51.998c-20.936,15.041-44.204,26.781-69.43,32.493    c-44.841,10.152-89.205-4.927-124.256-33.037c-57.163-45.843-95.206-116.161-165.006-145.464    c-27.551-11.566-57.725-13.059-86.889-7.752C120.499,252.637,124.539,267.092,133.994,265.371L133.994,265.371z"/></g></g><g><g><path fill="#000000" d="M425.053,504.206c28.368-16.622,63.222-19.922,95.342-15.531c33.317,4.555,66.931,17.136,92.963,38.799    c23.775,19.784,39.142,46.969,36.515,78.086c-3.202,37.926-31.679,71.345-62.198,91.762    c-35.801,23.948-79.25,35.429-121.813,38.853c-41.953,3.374-86.276-0.424-125.577-16.252    c-16.044-6.461-32.226-16.416-42.566-30.383c-8.666-11.705-12.458-24.864-12.396-38.957c0.138-31.479,19.175-62.317,39.453-85.915    c19.654-22.871,43.554-42.431,70.278-56.461c8.567-4.497,0.984-17.443-7.57-12.952c-32.182,16.895-60.621,41.612-82.714,70.395    c-19.684,25.646-36.327,57.798-34.273,91.039c2.263,36.626,29.439,62.085,61.536,75.911    c39.481,17.008,84.639,21.435,127.228,19.026c43.842-2.48,88.158-13.199,126.347-35.349    c35.184-20.405,65.471-52.977,76.203-92.939c8.79-32.729-0.652-65.48-22.171-90.997c-22.093-26.198-54.668-42.991-87.187-52.242    c-43.687-12.429-94.884-12.333-134.969,11.156C409.145,496.14,416.689,509.107,425.053,504.206L425.053,504.206z"/></g></g><text x="0" y="1015" fill="#000000" font-size="5px" font-weight="bold" font-family="'Helvetica Neue', Helvetica, Arial-Unicode, Arial, Sans-serif">Created by kai b</text><text x="0" y="1020" fill="#000000" font-size="5px" font-weight="bold" font-family="'Helvetica Neue', Helvetica, Arial-Unicode, Arial, Sans-serif">from the Noun Project</text></svg>