<svg width="47" height="47" viewBox="0 0 47 47" fill="none" xmlns="http://www.w3.org/2000/svg">
<path d="M31.3334 43.0837V35.505C31.4069 34.5712 31.2807 33.6324 30.9633 32.7511C30.6459 31.8699 30.1446 31.0663 29.4926 30.3937C35.6417 29.7083 42.1042 27.3779 42.1042 16.6854C42.1037 13.9512 41.052 11.3219 39.1667 9.34164C40.0595 6.94954 39.9963 4.30549 38.9905 1.95872C38.9905 1.95872 36.6797 1.2733 31.3334 4.85705C26.8449 3.64058 22.1136 3.64058 17.6251 4.85705C12.2788 1.2733 9.968 1.95872 9.968 1.95872C8.96215 4.30549 8.89903 6.94954 9.79175 9.34164C7.89241 11.3366 6.8396 13.9897 6.85425 16.7441C6.85425 27.3583 13.3167 29.6887 19.4659 30.4525C18.8216 31.1182 18.3247 31.9122 18.0076 32.7827C17.6904 33.6532 17.5601 34.5808 17.6251 35.505V43.0837M17.6251 37.2087C7.83341 40.1462 7.83341 32.3129 3.91675 31.3337L17.6251 37.2087Z" stroke="black" stroke-width="2" stroke-linecap="round" stroke-linejoin="round"/>
</svg>
