<svg width="56" height="56" viewBox="0 0 56 56" fill="none" xmlns="http://www.w3.org/2000/svg">
<path d="M37.3333 18.667C41.0463 18.667 44.6072 20.142 47.2328 22.7675C49.8583 25.393 51.3333 28.954 51.3333 32.667V49.0003H41.9999V32.667C41.9999 31.4293 41.5083 30.2423 40.6331 29.3672C39.7579 28.492 38.5709 28.0003 37.3333 28.0003C36.0956 28.0003 34.9086 28.492 34.0334 29.3672C33.1583 30.2423 32.6666 31.4293 32.6666 32.667V49.0003H23.3333V32.667C23.3333 28.954 24.8082 25.393 27.4338 22.7675C30.0593 20.142 33.6202 18.667 37.3333 18.667V18.667Z" stroke="black" stroke-width="2" stroke-linecap="round" stroke-linejoin="round"/>
<path d="M14.0001 21H4.66675V49H14.0001V21Z" stroke="black" stroke-width="2" stroke-linecap="round" stroke-linejoin="round"/>
<path d="M9.33342 14.0003C11.9107 14.0003 14.0001 11.911 14.0001 9.33366C14.0001 6.75633 11.9107 4.66699 9.33342 4.66699C6.75609 4.66699 4.66675 6.75633 4.66675 9.33366C4.66675 11.911 6.75609 14.0003 9.33342 14.0003Z" stroke="black" stroke-width="2" stroke-linecap="round" stroke-linejoin="round"/>
</svg>
